<?xml version="1.0" standalone="no"?>
<!DOCTYPE svg PUBLIC "-//W3C//DTD SVG 20010904//EN"
 "http://www.w3.org/TR/2001/REC-SVG-20010904/DTD/svg10.dtd">
<svg version="1.0" xmlns="http://www.w3.org/2000/svg"
 width="768.000000pt" height="768.000000pt" viewBox="0 0 768.000000 768.000000"
 preserveAspectRatio="xMidYMid meet">

<g transform="translate(0.000000,768.000000) scale(0.100000,-0.100000)"
fill="#000000" stroke="none">
<path d="M3655 7429 c-877 -38 -1719 -413 -2355 -1049 -598 -598 -955 -1354
-1041 -2205 -14 -146 -14 -520 1 -670 140 -1430 1095 -2627 2455 -3080 551
-184 1197 -227 1781 -120 1127 208 2094 951 2590 1990 234 491 345 985 345
1540 1 325 -29 577 -102 873 -252 1027 -973 1912 -1932 2372 -552 264 -1109
376 -1742 349z m656 -1849 c346 -25 580 -116 746 -292 152 -162 218 -347 218
-613 0 -180 -17 -267 -77 -388 -50 -99 -168 -223 -265 -277 -34 -19 -62 -37
-62 -40 0 -3 35 -22 77 -42 206 -97 351 -278 413 -513 27 -103 36 -310 20
-426 -32 -222 -154 -457 -312 -603 -200 -186 -419 -261 -823 -286 -89 -5 -511
-10 -938 -10 l-778 0 0 1750 0 1750 823 0 c452 0 883 -5 958 -10z"/>
<path d="M3230 4589 l0 -380 493 4 c538 4 556 6 675 66 127 64 175 151 176
321 1 101 0 108 -34 175 -86 172 -187 195 -862 195 l-448 0 0 -381z"/>
<path d="M3230 3170 l0 -460 483 0 c531 1 589 5 702 58 158 74 245 247 232
457 -15 240 -149 363 -429 394 -55 6 -291 11 -543 11 l-445 0 0 -460z"/>
</g>
</svg>
